<svg xmlns="http://www.w3.org/2000/svg" width="500" viewBox="0 0 375 375" height="500" version="1.0"><defs><clipPath id="prefix__a"><path d="M175 177.23h6V191h-6zm0 0"/></clipPath><clipPath id="prefix__b"><path d="M133.184 191h60.75v7.98h-60.75zm0 0"/></clipPath><clipPath id="prefix__c"><path d="M143.273 193.082h72.75v40.445h-72.75zm0 0"/></clipPath></defs><path fill="#3e4062" d="M150.738 179.676c-.324 1.73-.117 3.668-.093 5.445.023 1.867.093 3.691.253 5.535.165 1.778 3.192 2.031 3.559.254.441-2.008.648-3.875.602-5.906-.07-1.984-.137-4.129-.903-5.973-.297-.715-1.222-1.11-1.937-.969-.856.16-1.32.829-1.48 1.614zm0 0"/><g clip-path="url(#prefix__a)"><path fill="#3e4062" d="M175.86 179.078c-.696 1.383-.419 3.434-.348 4.957.07 1.778.277 3.414.738 5.121.625 2.332 3.586 1.985 4.047-.23.39-1.844.414-3.528.207-5.399-.184-1.683-.348-3.691-1.434-5.074-.968-1.223-2.632-.555-3.21.625zm0 0"/></g><g clip-path="url(#prefix__b)"><path fill="#3e4062" d="M133.313 208.348c-.07 3.484 1.687 6.757 3.628 9.55 1.918 2.747 4.368 5.145 7.118 7.059 5.246 3.645 11.671 5.719 18.05 5.996 6.47.277 13.102-1.058 18.79-4.195 5.66-3.117 10.445-7.707 13.933-13.149 1.918-3 3.469-6.277 4.555-9.668a36.049 36.049 0 001.34-5.394c.277-1.8.648-3.856.07-5.606-.555-1.664-2.59-1.894-3.375-.254-.625 1.313-.695 2.766-.996 4.196-.297 1.41-.621 2.816-1.04 4.199-.784 2.652-1.847 5.238-3.21 7.637-2.75 4.867-6.54 9.226-11.254 12.316-9.34 6.09-21.957 6.922-31.942 1.8-2.91-1.5-5.613-3.507-7.832-5.882-2.52-2.7-3.953-5.836-5.687-9.043-.508-.898-2.125-.738-2.149.438zm0 0"/></g><g clip-path="url(#prefix__c)"><path fill="#3e4062" d="M143.414 208.738c-.074 3.774 1.836 7.32 3.95 10.344 2.085 2.973 4.75 5.574 7.741 7.648 5.708 3.95 12.7 6.196 19.637 6.497 7.04.3 14.254-1.149 20.442-4.547 6.16-3.375 11.363-8.348 15.16-14.246a44.997 44.997 0 004.953-10.47 39.135 39.135 0 001.457-5.847c.3-1.949.703-4.172.074-6.074-.601-1.797-2.812-2.047-3.668-.273-.68 1.425-.754 3-1.082 4.546-.328 1.528-.68 3.051-1.133 4.551-.851 2.871-2.011 5.672-3.492 8.27-2.992 5.273-7.117 9.996-12.246 13.343-10.156 6.598-23.883 7.497-34.746 1.95-3.168-1.625-6.11-3.797-8.524-6.371-2.738-2.926-4.296-6.325-6.183-9.797-.555-.973-2.313-.801-2.34.476zm0 0"/></g><path d="M78.2 193.94c-2.855 0-5.39-.616-7.61-1.859a13.51 13.51 0 01-5.202-5.14c-1.25-2.188-1.875-4.707-1.875-7.563 0-2.851.617-5.375 1.859-7.562 1.238-2.188 2.957-3.899 5.156-5.14 2.207-1.24 4.723-1.86 7.547-1.86 2.27 0 4.363.402 6.281 1.203 1.914.805 3.547 1.933 4.891 3.39 1.352 1.45 2.305 3.157 2.86 5.126h-6.829a7.048 7.048 0 00-2.86-2.86c-1.241-.676-2.648-1.015-4.218-1.015-1.637 0-3.078.375-4.328 1.125a7.82 7.82 0 00-2.938 3.078c-.71 1.304-1.062 2.808-1.062 4.515 0 1.68.344 3.172 1.031 4.485a7.897 7.897 0 002.922 3.093c1.258.762 2.742 1.141 4.453 1.141 2.051 0 3.754-.52 5.11-1.562 1.363-1.04 2.242-2.41 2.64-4.11H76.95v-4.922h15.797c.164 2.399-.07 4.594-.703 6.594-.625 2-1.586 3.742-2.875 5.219-1.293 1.48-2.867 2.62-4.719 3.422-1.855.8-3.937 1.203-6.25 1.203zm0 0M107.47 193.94c-2.324 0-4.371-.464-6.14-1.39-1.774-.937-3.157-2.238-4.157-3.906-1-1.664-1.5-3.594-1.5-5.781 0-2.188.5-4.11 1.5-5.766 1-1.656 2.383-2.945 4.156-3.875 1.77-.937 3.817-1.406 6.141-1.406 2.32 0 4.367.469 6.14 1.406 1.77.93 3.15 2.219 4.141 3.875.989 1.656 1.485 3.578 1.485 5.766 0 2.187-.496 4.117-1.485 5.78-.992 1.669-2.37 2.97-4.14 3.907-1.774.926-3.82 1.39-6.141 1.39zm-5.797-11.077c0 1.71.535 3.109 1.61 4.203 1.082 1.086 2.476 1.625 4.187 1.625 1.707 0 3.094-.54 4.156-1.625 1.07-1.094 1.61-2.492 1.61-4.203 0-1.739-.54-3.145-1.61-4.22-1.062-1.081-2.449-1.624-4.156-1.624-1.71 0-3.105.543-4.187 1.625-1.075 1.074-1.61 2.48-1.61 4.219zm0 0" fill="#3e4062"/><path d="M142.61 167.066v4.734h-12.453v7.563h11.313v4.656h-11.313v11.61h-5.64v-28.563zm0 0M155.792 196.035c-2.106 0-3.953-.43-5.547-1.297-1.594-.864-2.836-2.13-3.719-3.797-.875-1.676-1.312-3.703-1.312-6.078 0-2.364.437-4.383 1.312-6.063.883-1.687 2.125-2.96 3.719-3.828 1.594-.863 3.441-1.297 5.547-1.297 2.113 0 3.968.434 5.562 1.297 1.594.867 2.832 2.14 3.719 3.828.883 1.68 1.328 3.7 1.328 6.063 0 2.375-.445 4.402-1.328 6.078-.887 1.668-2.125 2.933-3.719 3.797-1.594.867-3.45 1.297-5.562 1.297zm0-4.594c3.351 0 5.03-2.192 5.03-6.578 0-2.282-.433-3.946-1.296-5-.855-1.063-2.102-1.594-3.734-1.594-3.344 0-5.016 2.2-5.016 6.594 0 4.386 1.672 6.578 5.016 6.578zm0 0M180.828 196.035c-2.105 0-3.953-.43-5.547-1.297-1.593-.864-2.836-2.13-3.718-3.797-.875-1.676-1.313-3.703-1.313-6.078 0-2.364.438-4.383 1.313-6.063.882-1.687 2.125-2.96 3.718-3.828 1.594-.863 3.442-1.297 5.547-1.297 2.114 0 3.969.434 5.563 1.297 1.594.867 2.832 2.14 3.719 3.828.882 1.68 1.328 3.7 1.328 6.063 0 2.375-.446 4.402-1.328 6.078-.887 1.668-2.125 2.933-3.72 3.797-1.593.867-3.448 1.297-5.562 1.297zm0-4.594c3.352 0 5.032-2.192 5.032-6.578 0-2.282-.434-3.946-1.297-5-.856-1.063-2.102-1.594-3.735-1.594-3.343 0-5.015 2.2-5.015 6.594 0 4.386 1.672 6.578 5.015 6.578zm0 0" fill="#ff5c1f"/><path d="M204 196.035c-1.698 0-3.202-.41-4.515-1.235-1.312-.832-2.34-2.082-3.078-3.75-.742-1.676-1.11-3.738-1.11-6.187 0-2.457.38-4.52 1.141-6.188.758-1.676 1.813-2.926 3.157-3.75 1.351-.832 2.914-1.25 4.687-1.25 1.344 0 2.504.235 3.485.703.976.461 1.804 1.172 2.484 2.14l.422-.093v-11h5.406v30.203h-5.406v-2.797l-.422-.078a6.395 6.395 0 01-2.453 2.407c-1.043.582-2.309.875-3.797.875zm1.767-4.594c1.519 0 2.722-.54 3.609-1.625.883-1.082 1.328-2.735 1.328-4.953 0-2.207-.445-3.86-1.328-4.953-.887-1.094-2.09-1.641-3.61-1.641-1.593 0-2.812.531-3.656 1.594-.836 1.054-1.25 2.718-1.25 5 0 2.273.414 3.937 1.25 5 .844 1.054 2.063 1.578 3.657 1.578zm0 0" fill="#3e4062"/><path d="M223.954 204.769c-.93 0-1.766-.074-2.516-.219-.742-.137-1.343-.324-1.812-.562l.86-4.375.343-.11c.32.164.723.301 1.203.407.488.101.988.156 1.5.156.863 0 1.586-.117 2.172-.344.582-.23 1.07-.61 1.469-1.14.406-.524.765-1.25 1.078-2.188l-8.594-22.313h5.672l5.344 14.985h.469l5.218-14.985h5.5l-8.64 22.891c-.7 1.852-1.461 3.344-2.282 4.469-.824 1.125-1.804 1.957-2.937 2.5-1.125.55-2.477.828-4.047.828zm0 0M247.077 204.769c-.93 0-1.766-.074-2.516-.219-.742-.137-1.344-.324-1.812-.562l.859-4.375.344-.11c.32.164.722.301 1.203.407.488.101.988.156 1.5.156.863 0 1.586-.117 2.172-.344.582-.23 1.07-.61 1.469-1.14.406-.524.765-1.25 1.078-2.188l-8.594-22.313h5.672l5.344 14.985h.468l5.219-14.985h5.5l-8.64 22.891c-.7 1.852-1.462 3.344-2.282 4.469-.824 1.125-1.805 1.957-2.937 2.5-1.125.55-2.477.828-4.047.828zm0 0M270.2 204.769c-.93 0-1.766-.074-2.516-.219-.742-.137-1.344-.324-1.813-.562l.86-4.375.343-.11c.32.164.723.301 1.204.407.488.101.988.156 1.5.156.863 0 1.586-.117 2.171-.344.583-.23 1.07-.61 1.47-1.14.405-.524.765-1.25 1.077-2.188l-8.593-22.313h5.671l5.344 14.985h.469l5.219-14.985h5.5l-8.64 22.891c-.7 1.852-1.462 3.344-2.282 4.469-.824 1.125-1.805 1.957-2.938 2.5-1.125.55-2.476.828-4.047.828zm0 0" fill="#ff5c1f"/></svg>