<svg xmlns="http://www.w3.org/2000/svg" xmlns:xlink="http://www.w3.org/1999/xlink" width="1920" zoomAndPan="magnify" viewBox="0 0 1440 809.999993" height="1080" preserveAspectRatio="xMidYMid meet" version="1.0"><defs><g/><clipPath id="72a8e77f5a"><path d="M 358 200 L 661.9375 200 L 661.9375 236.332031 L 358 236.332031 Z M 358 200 " clip-rule="nonzero"/></clipPath><clipPath id="ec92f63b13"><path d="M 404 182.28125 L 769.828125 182.28125 L 769.828125 385 L 404 385 Z M 404 182.28125 " clip-rule="nonzero"/></clipPath><clipPath id="34e01ed612"><path d="M 0.398438 0.238281 L 297 0.238281 L 297 292 L 0.398438 292 Z M 0.398438 0.238281 " clip-rule="nonzero"/></clipPath><clipPath id="5a6343f4d7"><rect x="0" width="297" y="0" height="292"/></clipPath><clipPath id="b53feb4f4d"><path d="M 295 9 L 1135.121094 9 L 1135.121094 283 L 295 283 Z M 295 9 " clip-rule="nonzero"/></clipPath><clipPath id="e38222e8ef"><rect x="0" width="841" y="0" height="274"/></clipPath><clipPath id="d8c294ee04"><rect x="0" width="1136" y="0" height="387"/></clipPath></defs><rect x="-144" width="1728" fill="#ffffff" y="-80.999999" height="971.999992" fill-opacity="1"/><g transform="matrix(1, 0, 0, 1, 152, 198)"><g clip-path="url(#d8c294ee04)"><path fill="#000000" d="M 445.0625 140.566406 C 443.445312 149.21875 444.484375 158.902344 444.597656 167.785156 C 444.714844 177.125 445.0625 186.234375 445.867188 195.460938 C 446.675781 204.339844 461.777344 205.609375 463.621094 196.730469 C 465.8125 186.695312 466.847656 177.355469 466.617188 167.207031 C 466.273438 157.289062 465.925781 146.566406 462.121094 137.339844 C 460.625 133.765625 456.011719 131.804688 452.4375 132.496094 C 448.171875 133.300781 445.867188 136.648438 445.0625 140.566406 Z M 445.0625 140.566406 " fill-opacity="1" fill-rule="nonzero"/><path fill="#000000" d="M 570.371094 137.570312 C 566.914062 144.488281 568.296875 154.753906 568.640625 162.363281 C 568.988281 171.242188 570.027344 179.433594 572.332031 187.964844 C 575.445312 199.613281 590.199219 197.882812 592.503906 186.8125 C 594.464844 177.585938 594.582031 169.167969 593.542969 159.828125 C 592.621094 151.40625 591.8125 141.375 586.394531 134.457031 C 581.554688 128.34375 573.253906 131.6875 570.371094 137.570312 Z M 570.371094 137.570312 " fill-opacity="1" fill-rule="nonzero"/><g clip-path="url(#72a8e77f5a)"><path fill="#000000" d="M 358.136719 283.914062 C 357.792969 301.328125 366.554688 317.703125 376.238281 331.660156 C 385.804688 345.382812 398.027344 357.375 411.746094 366.949219 C 437.914062 385.167969 469.960938 395.546875 501.777344 396.933594 C 534.058594 398.316406 567.144531 391.628906 595.503906 375.941406 C 623.746094 360.375 647.609375 337.425781 665.015625 310.207031 C 674.585938 295.214844 682.308594 278.839844 687.726562 261.886719 C 690.609375 253.125 692.914062 244.011719 694.414062 234.902344 C 695.796875 225.90625 697.640625 215.644531 694.757812 206.878906 C 691.992188 198.574219 681.847656 197.421875 677.929688 205.609375 C 674.816406 212.183594 674.46875 219.449219 672.972656 226.597656 C 671.472656 233.632812 669.859375 240.667969 667.785156 247.589844 C 663.863281 260.851562 658.5625 273.765625 651.757812 285.761719 C 638.042969 310.09375 619.136719 331.890625 595.617188 347.34375 C 549.042969 377.789062 486.101562 381.941406 436.300781 356.339844 C 421.773438 348.84375 408.285156 338.808594 397.21875 326.929688 C 384.652344 313.4375 377.507812 297.753906 368.859375 281.722656 C 366.324219 277.226562 358.253906 278.035156 358.136719 283.914062 Z M 358.136719 283.914062 " fill-opacity="1" fill-rule="nonzero"/></g><g clip-path="url(#ec92f63b13)"><path fill="#000000" d="M 404.054688 261.421875 C 403.675781 280.417969 413.238281 298.28125 423.800781 313.5 C 434.242188 328.472656 447.574219 341.554688 462.542969 351.996094 C 491.097656 371.871094 526.0625 383.191406 560.78125 384.699219 C 596 386.210938 632.097656 378.914062 663.042969 361.804688 C 693.859375 344.824219 719.894531 319.792969 738.886719 290.105469 C 749.328125 273.75 757.753906 255.886719 763.667969 237.398438 C 766.8125 227.835938 769.328125 217.898438 770.960938 207.960938 C 772.472656 198.148438 774.484375 186.953125 771.339844 177.394531 C 768.320312 168.335938 757.253906 167.078125 752.976562 176.011719 C 749.578125 183.179688 749.203125 191.105469 747.566406 198.90625 C 745.933594 206.578125 744.171875 214.25 741.90625 221.796875 C 737.628906 236.265625 731.84375 250.355469 724.421875 263.4375 C 709.453125 289.976562 688.828125 313.753906 663.167969 330.609375 C 612.351562 363.820312 543.671875 368.347656 489.335938 340.421875 C 473.488281 332.246094 458.769531 321.300781 446.695312 308.34375 C 432.984375 293.625 425.1875 276.519531 415.753906 259.035156 C 412.984375 254.128906 404.179688 255.007812 404.054688 261.421875 Z M 404.054688 261.421875 " fill-opacity="1" fill-rule="nonzero"/></g><g clip-path="url(#34e01ed612)"><g transform="matrix(1, 0, 0, 1, 0, 0.000000000000056843)"><g clip-path="url(#5a6343f4d7)"><g fill="#3e4062" fill-opacity="1"><g transform="translate(0.598514, 214.914237)"><g><path d="M 81.984375 2.796875 C 67.722656 2.796875 55.054688 -0.300781 43.984375 -6.5 C 32.921875 -12.695312 24.253906 -21.257812 17.984375 -32.1875 C 11.722656 -43.125 8.59375 -55.722656 8.59375 -69.984375 C 8.59375 -84.253906 11.691406 -96.851562 17.890625 -107.78125 C 24.097656 -118.71875 32.695312 -127.285156 43.6875 -133.484375 C 54.6875 -139.679688 67.253906 -142.78125 81.390625 -142.78125 C 92.722656 -142.78125 103.1875 -140.78125 112.78125 -136.78125 C 122.382812 -132.78125 130.550781 -127.144531 137.28125 -119.875 C 144.007812 -112.613281 148.773438 -104.050781 151.578125 -94.1875 L 117.375 -94.1875 C 114.039062 -100.320312 109.273438 -105.085938 103.078125 -108.484375 C 96.878906 -111.878906 89.847656 -113.578125 81.984375 -113.578125 C 73.859375 -113.578125 66.660156 -111.710938 60.390625 -107.984375 C 54.117188 -104.253906 49.21875 -99.117188 45.6875 -92.578125 C 42.15625 -86.046875 40.390625 -78.515625 40.390625 -69.984375 C 40.390625 -61.585938 42.125 -54.125 45.59375 -47.59375 C 49.0625 -41.0625 53.925781 -35.894531 60.1875 -32.09375 C 66.457031 -28.289062 73.859375 -26.390625 82.390625 -26.390625 C 92.648438 -26.390625 101.179688 -28.988281 107.984375 -34.1875 C 114.785156 -39.394531 119.1875 -46.265625 121.1875 -54.796875 L 75.78125 -54.796875 L 75.78125 -79.390625 L 154.78125 -79.390625 C 155.570312 -67.390625 154.398438 -56.390625 151.265625 -46.390625 C 148.140625 -36.390625 143.34375 -27.691406 136.875 -20.296875 C 130.414062 -12.898438 122.550781 -7.203125 113.28125 -3.203125 C 104.019531 0.796875 93.585938 2.796875 81.984375 2.796875 Z M 81.984375 2.796875 "/></g></g></g><g fill="#3e4062" fill-opacity="1"><g transform="translate(162.171192, 214.914237)"><g><path d="M 66.796875 2.796875 C 55.191406 2.796875 44.957031 0.460938 36.09375 -4.203125 C 27.226562 -8.867188 20.296875 -15.363281 15.296875 -23.6875 C 10.296875 -32.019531 7.796875 -41.65625 7.796875 -52.59375 C 7.796875 -63.519531 10.296875 -73.113281 15.296875 -81.375 C 20.296875 -89.644531 27.226562 -96.113281 36.09375 -100.78125 C 44.957031 -105.445312 55.191406 -107.78125 66.796875 -107.78125 C 78.390625 -107.78125 88.617188 -105.445312 97.484375 -100.78125 C 106.347656 -96.113281 113.242188 -89.644531 118.171875 -81.375 C 123.109375 -73.113281 125.578125 -63.519531 125.578125 -52.59375 C 125.578125 -41.65625 123.109375 -32.019531 118.171875 -23.6875 C 113.242188 -15.363281 106.347656 -8.867188 97.484375 -4.203125 C 88.617188 0.460938 78.390625 2.796875 66.796875 2.796875 Z M 37.796875 -52.59375 C 37.796875 -44.0625 40.492188 -37.0625 45.890625 -31.59375 C 51.285156 -26.125 58.253906 -23.390625 66.796875 -23.390625 C 75.328125 -23.390625 82.253906 -26.125 87.578125 -31.59375 C 92.910156 -37.0625 95.578125 -44.0625 95.578125 -52.59375 C 95.578125 -61.257812 92.910156 -68.289062 87.578125 -73.6875 C 82.253906 -79.082031 75.328125 -81.78125 66.796875 -81.78125 C 58.253906 -81.78125 51.285156 -79.082031 45.890625 -73.6875 C 40.492188 -68.289062 37.796875 -61.257812 37.796875 -52.59375 Z M 37.796875 -52.59375 "/></g></g></g></g></g></g><g clip-path="url(#b53feb4f4d)"><g transform="matrix(1, 0, 0, 1, 295, 9)"><g clip-path="url(#e38222e8ef)"><g fill="#ff5c1f" fill-opacity="1"><g transform="translate(0.58138, 213.573032)"><g><path d="M 109.0625 -142.75 L 109.0625 -119.125 L 46.765625 -119.125 L 46.765625 -81.328125 L 103.296875 -81.328125 L 103.296875 -58 L 46.765625 -58 L 46.765625 0 L 18.546875 0 L 18.546875 -142.75 Z M 109.0625 -142.75 "/></g></g></g><g fill="#ff5c1f" fill-opacity="1"><g transform="translate(112.964722, 213.573032)"><g><path d="M 62.59375 2.046875 C 52.039062 2.046875 42.773438 -0.113281 34.796875 -4.4375 C 26.828125 -8.769531 20.644531 -15.117188 16.25 -23.484375 C 11.863281 -31.847656 9.671875 -41.953125 9.671875 -53.796875 C 9.671875 -65.648438 11.863281 -75.773438 16.25 -84.171875 C 20.644531 -92.566406 26.828125 -98.925781 34.796875 -103.25 C 42.773438 -107.582031 52.039062 -109.75 62.59375 -109.75 C 73.132812 -109.75 82.390625 -107.582031 90.359375 -103.25 C 98.335938 -98.925781 104.539062 -92.566406 108.96875 -84.171875 C 113.394531 -75.773438 115.609375 -65.648438 115.609375 -53.796875 C 115.609375 -41.953125 113.394531 -31.847656 108.96875 -23.484375 C 104.539062 -15.117188 98.335938 -8.769531 90.359375 -4.4375 C 82.390625 -0.113281 73.132812 2.046875 62.59375 2.046875 Z M 62.59375 -20.890625 C 79.320312 -20.890625 87.6875 -31.859375 87.6875 -53.796875 C 87.6875 -65.191406 85.535156 -73.539062 81.234375 -78.84375 C 76.941406 -84.144531 70.726562 -86.796875 62.59375 -86.796875 C 45.863281 -86.796875 37.5 -75.796875 37.5 -53.796875 C 37.5 -31.859375 45.863281 -20.890625 62.59375 -20.890625 Z M 62.59375 -20.890625 "/></g></g></g><g fill="#ff5c1f" fill-opacity="1"><g transform="translate(238.138961, 213.573032)"><g><path d="M 62.59375 2.046875 C 52.039062 2.046875 42.773438 -0.113281 34.796875 -4.4375 C 26.828125 -8.769531 20.644531 -15.117188 16.25 -23.484375 C 11.863281 -31.847656 9.671875 -41.953125 9.671875 -53.796875 C 9.671875 -65.648438 11.863281 -75.773438 16.25 -84.171875 C 20.644531 -92.566406 26.828125 -98.925781 34.796875 -103.25 C 42.773438 -107.582031 52.039062 -109.75 62.59375 -109.75 C 73.132812 -109.75 82.390625 -107.582031 90.359375 -103.25 C 98.335938 -98.925781 104.539062 -92.566406 108.96875 -84.171875 C 113.394531 -75.773438 115.609375 -65.648438 115.609375 -53.796875 C 115.609375 -41.953125 113.394531 -31.847656 108.96875 -23.484375 C 104.539062 -15.117188 98.335938 -8.769531 90.359375 -4.4375 C 82.390625 -0.113281 73.132812 2.046875 62.59375 2.046875 Z M 62.59375 -20.890625 C 79.320312 -20.890625 87.6875 -31.859375 87.6875 -53.796875 C 87.6875 -65.191406 85.535156 -73.539062 81.234375 -78.84375 C 76.941406 -84.144531 70.726562 -86.796875 62.59375 -86.796875 C 45.863281 -86.796875 37.5 -75.796875 37.5 -53.796875 C 37.5 -31.859375 45.863281 -20.890625 62.59375 -20.890625 Z M 62.59375 -20.890625 "/></g></g></g><g fill="#000000" fill-opacity="1"><g transform="translate(363.321031, 213.573032)"><g><path d="M 53.21875 2.046875 C 44.6875 2.046875 37.148438 -0.015625 30.609375 -4.140625 C 24.066406 -8.273438 18.941406 -14.523438 15.234375 -22.890625 C 11.523438 -31.253906 9.671875 -41.554688 9.671875 -53.796875 C 9.671875 -66.097656 11.570312 -76.429688 15.375 -84.796875 C 19.1875 -93.160156 24.457031 -99.410156 31.1875 -103.546875 C 37.925781 -107.679688 45.722656 -109.75 54.578125 -109.75 C 61.285156 -109.75 67.09375 -108.59375 72 -106.28125 C 76.914062 -103.96875 81.066406 -100.375 84.453125 -95.5 L 86.515625 -95.984375 L 86.515625 -150.953125 L 113.5625 -150.953125 L 113.5625 0 L 86.515625 0 L 86.515625 -13.96875 L 84.453125 -14.359375 C 81.460938 -9.273438 77.363281 -5.269531 72.15625 -2.34375 C 66.945312 0.582031 60.632812 2.046875 53.21875 2.046875 Z M 62 -20.890625 C 69.613281 -20.890625 75.632812 -23.609375 80.0625 -29.046875 C 84.488281 -34.484375 86.703125 -42.734375 86.703125 -53.796875 C 86.703125 -64.867188 84.488281 -73.132812 80.0625 -78.59375 C 75.632812 -84.0625 69.613281 -86.796875 62 -86.796875 C 54.0625 -86.796875 47.992188 -84.144531 43.796875 -78.84375 C 39.597656 -73.539062 37.5 -65.191406 37.5 -53.796875 C 37.5 -42.472656 39.597656 -34.15625 43.796875 -28.84375 C 47.992188 -23.539062 54.0625 -20.890625 62 -20.890625 Z M 62 -20.890625 "/></g></g></g><g fill="#ff5c1f" fill-opacity="1"><g transform="translate(492.419584, 213.573032)"><g><path d="M 23.828125 45.703125 C 19.203125 45.703125 15.015625 45.34375 11.265625 44.625 C 7.523438 43.90625 4.484375 42.960938 2.140625 41.796875 L 6.4375 19.921875 L 8.203125 19.328125 C 9.828125 20.179688 11.84375 20.867188 14.25 21.390625 C 16.664062 21.910156 19.140625 22.171875 21.671875 22.171875 C 26.035156 22.171875 29.664062 21.597656 32.5625 20.453125 C 35.457031 19.316406 37.914062 17.429688 39.9375 14.796875 C 41.957031 12.160156 43.75 8.5 45.3125 3.8125 L 2.34375 -107.703125 L 30.65625 -107.703125 L 57.40625 -32.8125 L 59.75 -32.8125 L 85.828125 -107.703125 L 113.359375 -107.703125 L 70.109375 6.734375 C 66.660156 15.984375 62.867188 23.421875 58.734375 29.046875 C 54.597656 34.679688 49.710938 38.863281 44.078125 41.59375 C 38.453125 44.332031 31.703125 45.703125 23.828125 45.703125 Z M 23.828125 45.703125 "/></g></g></g><g fill="#ff5c1f" fill-opacity="1"><g transform="translate(608.025122, 213.573032)"><g><path d="M 23.828125 45.703125 C 19.203125 45.703125 15.015625 45.34375 11.265625 44.625 C 7.523438 43.90625 4.484375 42.960938 2.140625 41.796875 L 6.4375 19.921875 L 8.203125 19.328125 C 9.828125 20.179688 11.84375 20.867188 14.25 21.390625 C 16.664062 21.910156 19.140625 22.171875 21.671875 22.171875 C 26.035156 22.171875 29.664062 21.597656 32.5625 20.453125 C 35.457031 19.316406 37.914062 17.429688 39.9375 14.796875 C 41.957031 12.160156 43.75 8.5 45.3125 3.8125 L 2.34375 -107.703125 L 30.65625 -107.703125 L 57.40625 -32.8125 L 59.75 -32.8125 L 85.828125 -107.703125 L 113.359375 -107.703125 L 70.109375 6.734375 C 66.660156 15.984375 62.867188 23.421875 58.734375 29.046875 C 54.597656 34.679688 49.710938 38.863281 44.078125 41.59375 C 38.453125 44.332031 31.703125 45.703125 23.828125 45.703125 Z M 23.828125 45.703125 "/></g></g></g><g fill="#ff5c1f" fill-opacity="1"><g transform="translate(723.630659, 213.573032)"><g><path d="M 23.828125 45.703125 C 19.203125 45.703125 15.015625 45.34375 11.265625 44.625 C 7.523438 43.90625 4.484375 42.960938 2.140625 41.796875 L 6.4375 19.921875 L 8.203125 19.328125 C 9.828125 20.179688 11.84375 20.867188 14.25 21.390625 C 16.664062 21.910156 19.140625 22.171875 21.671875 22.171875 C 26.035156 22.171875 29.664062 21.597656 32.5625 20.453125 C 35.457031 19.316406 37.914062 17.429688 39.9375 14.796875 C 41.957031 12.160156 43.75 8.5 45.3125 3.8125 L 2.34375 -107.703125 L 30.65625 -107.703125 L 57.40625 -32.8125 L 59.75 -32.8125 L 85.828125 -107.703125 L 113.359375 -107.703125 L 70.109375 6.734375 C 66.660156 15.984375 62.867188 23.421875 58.734375 29.046875 C 54.597656 34.679688 49.710938 38.863281 44.078125 41.59375 C 38.453125 44.332031 31.703125 45.703125 23.828125 45.703125 Z M 23.828125 45.703125 "/></g></g></g></g></g></g></g></g></svg>