<svg xmlns="http://www.w3.org/2000/svg" xmlns:xlink="http://www.w3.org/1999/xlink" zoomAndPan="magnify" viewBox="0 0 375 374.999991" preserveAspectRatio="xMidYMid meet" version="1.0"><defs><g/><clipPath id="7d94679592"><path d="M 175 177.230469 L 181 177.230469 L 181 191 L 175 191 Z M 175 177.230469 " clip-rule="nonzero"/></clipPath><clipPath id="4c92c9a542"><path d="M 133.183594 191 L 193.933594 191 L 193.933594 198.980469 L 133.183594 198.980469 Z M 133.183594 191 " clip-rule="nonzero"/></clipPath><clipPath id="56e36d1204"><path d="M 143.273438 193.082031 L 216.023438 193.082031 L 216.023438 233.527344 L 143.273438 233.527344 Z M 143.273438 193.082031 " clip-rule="nonzero"/></clipPath></defs><path fill="#3e4062" d="M 150.738281 179.675781 C 150.414062 181.40625 150.621094 183.34375 150.644531 185.121094 C 150.667969 186.988281 150.738281 188.8125 150.898438 190.65625 C 151.0625 192.433594 154.089844 192.6875 154.457031 190.910156 C 154.898438 188.902344 155.105469 187.035156 155.058594 185.003906 C 154.988281 183.019531 154.921875 180.875 154.15625 179.03125 C 153.859375 178.316406 152.933594 177.921875 152.21875 178.0625 C 151.363281 178.222656 150.898438 178.890625 150.738281 179.675781 Z M 150.738281 179.675781 " fill-opacity="1" fill-rule="nonzero"/><g clip-path="url(#7d94679592)"><path fill="#3e4062" d="M 175.859375 179.078125 C 175.164062 180.460938 175.441406 182.511719 175.511719 184.035156 C 175.582031 185.8125 175.789062 187.449219 176.25 189.15625 C 176.875 191.488281 179.835938 191.140625 180.296875 188.925781 C 180.6875 187.082031 180.710938 185.398438 180.503906 183.527344 C 180.320312 181.84375 180.15625 179.835938 179.070312 178.453125 C 178.101562 177.230469 176.4375 177.898438 175.859375 179.078125 Z M 175.859375 179.078125 " fill-opacity="1" fill-rule="nonzero"/></g><g clip-path="url(#4c92c9a542)"><path fill="#3e4062" d="M 133.3125 208.347656 C 133.242188 211.832031 135 215.105469 136.941406 217.898438 C 138.859375 220.644531 141.308594 223.042969 144.058594 224.957031 C 149.304688 228.601562 155.730469 230.675781 162.109375 230.953125 C 168.578125 231.230469 175.210938 229.894531 180.898438 226.757812 C 186.558594 223.640625 191.34375 219.050781 194.832031 213.609375 C 196.75 210.609375 198.300781 207.332031 199.386719 203.941406 C 199.964844 202.191406 200.425781 200.367188 200.726562 198.546875 C 201.003906 196.746094 201.375 194.691406 200.796875 192.941406 C 200.242188 191.277344 198.207031 191.046875 197.421875 192.6875 C 196.796875 194 196.726562 195.453125 196.425781 196.882812 C 196.128906 198.292969 195.804688 199.699219 195.386719 201.082031 C 194.601562 203.734375 193.539062 206.320312 192.175781 208.71875 C 189.425781 213.585938 185.636719 217.945312 180.921875 221.035156 C 171.582031 227.125 158.964844 227.957031 148.980469 222.835938 C 146.070312 221.335938 143.367188 219.328125 141.148438 216.953125 C 138.628906 214.253906 137.195312 211.117188 135.460938 207.910156 C 134.953125 207.011719 133.335938 207.171875 133.3125 208.347656 Z M 133.3125 208.347656 " fill-opacity="1" fill-rule="nonzero"/></g><g clip-path="url(#56e36d1204)"><path fill="#3e4062" d="M 143.414062 208.738281 C 143.339844 212.511719 145.25 216.058594 147.363281 219.082031 C 149.449219 222.054688 152.113281 224.65625 155.105469 226.730469 C 160.8125 230.679688 167.804688 232.925781 174.742188 233.226562 C 181.78125 233.527344 188.996094 232.078125 195.183594 228.679688 C 201.34375 225.304688 206.546875 220.332031 210.34375 214.433594 C 212.429688 211.1875 214.113281 207.636719 215.296875 203.964844 C 215.925781 202.066406 216.425781 200.089844 216.753906 198.117188 C 217.054688 196.167969 217.457031 193.945312 216.828125 192.042969 C 216.226562 190.246094 214.015625 189.996094 213.160156 191.769531 C 212.480469 193.195312 212.40625 194.769531 212.078125 196.316406 C 211.75 197.84375 211.398438 199.367188 210.945312 200.867188 C 210.09375 203.738281 208.933594 206.539062 207.453125 209.136719 C 204.460938 214.410156 200.335938 219.132812 195.207031 222.480469 C 185.050781 229.078125 171.324219 229.976562 160.460938 224.429688 C 157.292969 222.804688 154.351562 220.632812 151.9375 218.058594 C 149.199219 215.132812 147.640625 211.734375 145.753906 208.261719 C 145.199219 207.289062 143.441406 207.460938 143.414062 208.738281 Z M 143.414062 208.738281 " fill-opacity="1" fill-rule="nonzero"/></g><g fill="#3e4062" fill-opacity="1"><g transform="translate(61.793856, 193.378259)"><g><path d="M 16.40625 0.5625 C 13.550781 0.5625 11.015625 -0.0546875 8.796875 -1.296875 C 6.585938 -2.535156 4.851562 -4.25 3.59375 -6.4375 C 2.34375 -8.625 1.71875 -11.144531 1.71875 -14 C 1.71875 -16.851562 2.335938 -19.375 3.578125 -21.5625 C 4.816406 -23.75 6.535156 -25.460938 8.734375 -26.703125 C 10.941406 -27.941406 13.457031 -28.5625 16.28125 -28.5625 C 18.550781 -28.5625 20.644531 -28.160156 22.5625 -27.359375 C 24.476562 -26.554688 26.109375 -25.425781 27.453125 -23.96875 C 28.804688 -22.519531 29.757812 -20.8125 30.3125 -18.84375 L 23.484375 -18.84375 C 22.816406 -20.070312 21.863281 -21.023438 20.625 -21.703125 C 19.382812 -22.378906 17.976562 -22.71875 16.40625 -22.71875 C 14.769531 -22.71875 13.328125 -22.34375 12.078125 -21.59375 C 10.828125 -20.851562 9.847656 -19.828125 9.140625 -18.515625 C 8.429688 -17.210938 8.078125 -15.707031 8.078125 -14 C 8.078125 -12.320312 8.421875 -10.828125 9.109375 -9.515625 C 9.804688 -8.210938 10.78125 -7.179688 12.03125 -6.421875 C 13.289062 -5.660156 14.773438 -5.28125 16.484375 -5.28125 C 18.535156 -5.28125 20.238281 -5.800781 21.59375 -6.84375 C 22.957031 -7.882812 23.835938 -9.253906 24.234375 -10.953125 L 15.15625 -10.953125 L 15.15625 -15.875 L 30.953125 -15.875 C 31.117188 -13.476562 30.882812 -11.28125 30.25 -9.28125 C 29.625 -7.28125 28.664062 -5.539062 27.375 -4.0625 C 26.082031 -2.582031 24.507812 -1.441406 22.65625 -0.640625 C 20.800781 0.160156 18.71875 0.5625 16.40625 0.5625 Z M 16.40625 0.5625 "/></g></g></g><g fill="#3e4062" fill-opacity="1"><g transform="translate(94.110642, 193.378259)"><g><path d="M 13.359375 0.5625 C 11.035156 0.5625 8.988281 0.0976562 7.21875 -0.828125 C 5.445312 -1.765625 4.0625 -3.066406 3.0625 -4.734375 C 2.0625 -6.398438 1.5625 -8.328125 1.5625 -10.515625 C 1.5625 -12.703125 2.0625 -14.625 3.0625 -16.28125 C 4.0625 -17.9375 5.445312 -19.226562 7.21875 -20.15625 C 8.988281 -21.09375 11.035156 -21.5625 13.359375 -21.5625 C 15.679688 -21.5625 17.726562 -21.09375 19.5 -20.15625 C 21.269531 -19.226562 22.648438 -17.9375 23.640625 -16.28125 C 24.628906 -14.625 25.125 -12.703125 25.125 -10.515625 C 25.125 -8.328125 24.628906 -6.398438 23.640625 -4.734375 C 22.648438 -3.066406 21.269531 -1.765625 19.5 -0.828125 C 17.726562 0.0976562 15.679688 0.5625 13.359375 0.5625 Z M 7.5625 -10.515625 C 7.5625 -8.804688 8.097656 -7.40625 9.171875 -6.3125 C 10.253906 -5.226562 11.648438 -4.6875 13.359375 -4.6875 C 15.066406 -4.6875 16.453125 -5.226562 17.515625 -6.3125 C 18.585938 -7.40625 19.125 -8.804688 19.125 -10.515625 C 19.125 -12.253906 18.585938 -13.660156 17.515625 -14.734375 C 16.453125 -15.816406 15.066406 -16.359375 13.359375 -16.359375 C 11.648438 -16.359375 10.253906 -15.816406 9.171875 -14.734375 C 8.097656 -13.660156 7.5625 -12.253906 7.5625 -10.515625 Z M 7.5625 -10.515625 "/></g></g></g><g fill="#ff5c1f" fill-opacity="1"><g transform="translate(120.797766, 195.628259)"><g><path d="M 21.8125 -28.5625 L 21.8125 -23.828125 L 9.359375 -23.828125 L 9.359375 -16.265625 L 20.671875 -16.265625 L 20.671875 -11.609375 L 9.359375 -11.609375 L 9.359375 0 L 3.71875 0 L 3.71875 -28.5625 Z M 21.8125 -28.5625 "/></g></g></g><g fill="#ff5c1f" fill-opacity="1"><g transform="translate(143.276021, 195.628259)"><g><path d="M 12.515625 0.40625 C 10.410156 0.40625 8.5625 -0.0234375 6.96875 -0.890625 C 5.375 -1.753906 4.132812 -3.019531 3.25 -4.6875 C 2.375 -6.363281 1.9375 -8.390625 1.9375 -10.765625 C 1.9375 -13.128906 2.375 -15.148438 3.25 -16.828125 C 4.132812 -18.515625 5.375 -19.789062 6.96875 -20.65625 C 8.5625 -21.519531 10.410156 -21.953125 12.515625 -21.953125 C 14.628906 -21.953125 16.484375 -21.519531 18.078125 -20.65625 C 19.671875 -19.789062 20.910156 -18.515625 21.796875 -16.828125 C 22.679688 -15.148438 23.125 -13.128906 23.125 -10.765625 C 23.125 -8.390625 22.679688 -6.363281 21.796875 -4.6875 C 20.910156 -3.019531 19.671875 -1.753906 18.078125 -0.890625 C 16.484375 -0.0234375 14.628906 0.40625 12.515625 0.40625 Z M 12.515625 -4.1875 C 15.867188 -4.1875 17.546875 -6.378906 17.546875 -10.765625 C 17.546875 -13.046875 17.113281 -14.710938 16.25 -15.765625 C 15.394531 -16.828125 14.148438 -17.359375 12.515625 -17.359375 C 9.171875 -17.359375 7.5 -15.160156 7.5 -10.765625 C 7.5 -6.378906 9.171875 -4.1875 12.515625 -4.1875 Z M 12.515625 -4.1875 "/></g></g></g><g fill="#ff5c1f" fill-opacity="1"><g transform="translate(168.312636, 195.628259)"><g><path d="M 12.515625 0.40625 C 10.410156 0.40625 8.5625 -0.0234375 6.96875 -0.890625 C 5.375 -1.753906 4.132812 -3.019531 3.25 -4.6875 C 2.375 -6.363281 1.9375 -8.390625 1.9375 -10.765625 C 1.9375 -13.128906 2.375 -15.148438 3.25 -16.828125 C 4.132812 -18.515625 5.375 -19.789062 6.96875 -20.65625 C 8.5625 -21.519531 10.410156 -21.953125 12.515625 -21.953125 C 14.628906 -21.953125 16.484375 -21.519531 18.078125 -20.65625 C 19.671875 -19.789062 20.910156 -18.515625 21.796875 -16.828125 C 22.679688 -15.148438 23.125 -13.128906 23.125 -10.765625 C 23.125 -8.390625 22.679688 -6.363281 21.796875 -4.6875 C 20.910156 -3.019531 19.671875 -1.753906 18.078125 -0.890625 C 16.484375 -0.0234375 14.628906 0.40625 12.515625 0.40625 Z M 12.515625 -4.1875 C 15.867188 -4.1875 17.546875 -6.378906 17.546875 -10.765625 C 17.546875 -13.046875 17.113281 -14.710938 16.25 -15.765625 C 15.394531 -16.828125 14.148438 -17.359375 12.515625 -17.359375 C 9.171875 -17.359375 7.5 -15.160156 7.5 -10.765625 C 7.5 -6.378906 9.171875 -4.1875 12.515625 -4.1875 Z M 12.515625 -4.1875 "/></g></g></g><g fill="#3e4062" fill-opacity="1"><g transform="translate(193.360261, 195.628259)"><g><path d="M 10.640625 0.40625 C 8.941406 0.40625 7.4375 -0.00390625 6.125 -0.828125 C 4.8125 -1.660156 3.785156 -2.910156 3.046875 -4.578125 C 2.304688 -6.253906 1.9375 -8.316406 1.9375 -10.765625 C 1.9375 -13.222656 2.316406 -15.285156 3.078125 -16.953125 C 3.835938 -18.628906 4.890625 -19.878906 6.234375 -20.703125 C 7.585938 -21.535156 9.148438 -21.953125 10.921875 -21.953125 C 12.265625 -21.953125 13.425781 -21.71875 14.40625 -21.25 C 15.382812 -20.789062 16.210938 -20.078125 16.890625 -19.109375 L 17.3125 -19.203125 L 17.3125 -30.203125 L 22.71875 -30.203125 L 22.71875 0 L 17.3125 0 L 17.3125 -2.796875 L 16.890625 -2.875 C 16.296875 -1.851562 15.476562 -1.050781 14.4375 -0.46875 C 13.394531 0.113281 12.128906 0.40625 10.640625 0.40625 Z M 12.40625 -4.1875 C 13.925781 -4.1875 15.128906 -4.726562 16.015625 -5.8125 C 16.898438 -6.894531 17.34375 -8.546875 17.34375 -10.765625 C 17.34375 -12.972656 16.898438 -14.625 16.015625 -15.71875 C 15.128906 -16.8125 13.925781 -17.359375 12.40625 -17.359375 C 10.8125 -17.359375 9.59375 -16.828125 8.75 -15.765625 C 7.914062 -14.710938 7.5 -13.046875 7.5 -10.765625 C 7.5 -8.492188 7.914062 -6.828125 8.75 -5.765625 C 9.59375 -4.710938 10.8125 -4.1875 12.40625 -4.1875 Z M 12.40625 -4.1875 "/></g></g></g><g fill="#ff5c1f" fill-opacity="1"><g transform="translate(219.188385, 195.628259)"><g><path d="M 4.765625 9.140625 C 3.835938 9.140625 3 9.066406 2.25 8.921875 C 1.507812 8.785156 0.90625 8.597656 0.4375 8.359375 L 1.296875 3.984375 L 1.640625 3.875 C 1.960938 4.039062 2.363281 4.175781 2.84375 4.28125 C 3.332031 4.382812 3.832031 4.4375 4.34375 4.4375 C 5.207031 4.4375 5.929688 4.320312 6.515625 4.09375 C 7.097656 3.863281 7.585938 3.484375 7.984375 2.953125 C 8.390625 2.429688 8.75 1.703125 9.0625 0.765625 L 0.46875 -21.546875 L 6.140625 -21.546875 L 11.484375 -6.5625 L 11.953125 -6.5625 L 17.171875 -21.546875 L 22.671875 -21.546875 L 14.03125 1.34375 C 13.332031 3.195312 12.570312 4.6875 11.75 5.8125 C 10.925781 6.9375 9.945312 7.769531 8.8125 8.3125 C 7.6875 8.863281 6.335938 9.140625 4.765625 9.140625 Z M 4.765625 9.140625 "/></g></g></g><g fill="#ff5c1f" fill-opacity="1"><g transform="translate(242.311125, 195.628259)"><g><path d="M 4.765625 9.140625 C 3.835938 9.140625 3 9.066406 2.25 8.921875 C 1.507812 8.785156 0.90625 8.597656 0.4375 8.359375 L 1.296875 3.984375 L 1.640625 3.875 C 1.960938 4.039062 2.363281 4.175781 2.84375 4.28125 C 3.332031 4.382812 3.832031 4.4375 4.34375 4.4375 C 5.207031 4.4375 5.929688 4.320312 6.515625 4.09375 C 7.097656 3.863281 7.585938 3.484375 7.984375 2.953125 C 8.390625 2.429688 8.75 1.703125 9.0625 0.765625 L 0.46875 -21.546875 L 6.140625 -21.546875 L 11.484375 -6.5625 L 11.953125 -6.5625 L 17.171875 -21.546875 L 22.671875 -21.546875 L 14.03125 1.34375 C 13.332031 3.195312 12.570312 4.6875 11.75 5.8125 C 10.925781 6.9375 9.945312 7.769531 8.8125 8.3125 C 7.6875 8.863281 6.335938 9.140625 4.765625 9.140625 Z M 4.765625 9.140625 "/></g></g></g><g fill="#ff5c1f" fill-opacity="1"><g transform="translate(265.433865, 195.628259)"><g><path d="M 4.765625 9.140625 C 3.835938 9.140625 3 9.066406 2.25 8.921875 C 1.507812 8.785156 0.90625 8.597656 0.4375 8.359375 L 1.296875 3.984375 L 1.640625 3.875 C 1.960938 4.039062 2.363281 4.175781 2.84375 4.28125 C 3.332031 4.382812 3.832031 4.4375 4.34375 4.4375 C 5.207031 4.4375 5.929688 4.320312 6.515625 4.09375 C 7.097656 3.863281 7.585938 3.484375 7.984375 2.953125 C 8.390625 2.429688 8.75 1.703125 9.0625 0.765625 L 0.46875 -21.546875 L 6.140625 -21.546875 L 11.484375 -6.5625 L 11.953125 -6.5625 L 17.171875 -21.546875 L 22.671875 -21.546875 L 14.03125 1.34375 C 13.332031 3.195312 12.570312 4.6875 11.75 5.8125 C 10.925781 6.9375 9.945312 7.769531 8.8125 8.3125 C 7.6875 8.863281 6.335938 9.140625 4.765625 9.140625 Z M 4.765625 9.140625 "/></g></g></g></svg>